# xmcd
#
# Track frame offsets: 
#        150
#        23531
#        43876
#        68390
#        86472
#        109714
#        129049
#        147340
#        168302
#        194693
#        211437
#        229911
#
# Disc length: 3413 seconds
#
# Revision: 0
# Processed by: cddbd v1.5.2PL0 Copyright (c) Steve Scherf et al.
# Submitted via: ExactAudioCopy v1.3
#
DISCID=9d0d530c
DTITLE=Big Harp George - Uptown Cool
DYEAR=2018
DGENRE=Blues
TTITLE0=Down To The Rite Aid
TTITLE1=Internet Honey
TTITLE2=Alternative Facts
TTITLE3=I Wanna Know
TTITLE4=Nobody's Listening
TTITLE5=In The First Place
TTITLE6=Standing In The Weather
TTITLE7=Bulletproof
TTITLE8=Cold Snap By The Bay
TTITLE9=Just Calm Yourself
TTITLE10=Uptown Cool
TTITLE11=Lord Make Me Chaste
EXTD=
EXTT0=
EXTT1=
EXTT2=
EXTT3=
EXTT4=
EXTT5=
EXTT6=
EXTT7=
EXTT8=
EXTT9=
EXTT10=
EXTT11=
PLAYORDER=
